<svg width="500" height="500" viewBox="0 0 500 500" fill="none" xmlns="http://www.w3.org/2000/svg">
<g clip-path="url(#clip0_44_2)">
<rect width="1500" height="844" fill="#3B82F6"/>
<path d="M166.744 278.223C205.803 300.618 242.084 342.633 248.803 391.367C255.611 440.19 232.857 495.732 193.709 538.284C154.651 580.836 99.1087 610.399 39.6252 614.341C-19.7688 618.193 -83.1045 596.424 -116.878 553.872C-150.651 511.319 -154.771 447.984 -146.082 393.338C-137.392 338.602 -115.982 292.556 -82.2086 270.16C-48.5252 247.764 -2.47917 249.018 41.596 250.989C85.5816 253.05 127.596 255.827 166.744 278.223Z" fill="#10B981"/>
<path d="M584.051 -113.935C633.634 -89.1435 672.507 -28.8503 666.359 25.2945C660.111 79.3402 608.842 127.238 559.259 170.871C509.676 214.504 461.779 253.873 418.641 249.113C375.504 244.353 337.226 195.365 309.955 151.732C282.684 108.098 266.421 69.8202 267.016 32.0378C267.611 -5.74457 284.965 -42.932 312.236 -67.7236C339.506 -92.5152 376.694 -104.911 425.484 -116.513C474.174 -128.017 534.468 -138.727 584.051 -113.935Z" fill="#10B981"/>
<path d="M390 410H410M330 410H290V350M350 350H410V290H390M290 290H330M90 349.994C90 331.358 90 322.038 93.0448 314.688C97.1046 304.886 104.886 297.104 114.688 293.044C122.038 290 131.357 290 149.995 290C168.633 290 177.962 290 185.312 293.044C195.114 297.104 202.893 304.886 206.953 314.688C209.998 322.038 209.998 331.362 209.998 350C209.998 368.638 209.998 377.956 206.953 385.308C202.893 395.108 195.114 402.894 185.312 406.954C177.962 409.998 168.632 409.998 149.995 409.998C131.357 409.998 122.038 409.998 114.688 406.954C104.886 402.894 97.1046 395.114 93.0448 385.312C90 377.962 90 368.632 90 349.994ZM290 149.995C290 131.357 290 122.038 293.044 114.688C297.104 104.886 304.886 97.1046 314.688 93.0448C322.038 90 331.358 90 349.994 90C368.632 90 377.962 90 385.312 93.0448C395.114 97.1046 402.894 104.886 406.954 114.688C409.998 122.038 409.998 131.362 409.998 150C409.998 168.638 409.998 177.957 406.954 185.307C402.894 195.108 395.114 202.893 385.312 206.953C377.962 209.998 368.632 209.998 349.994 209.998C331.358 209.998 322.038 209.998 314.688 206.953C304.886 202.893 297.104 195.114 293.044 185.312C290 177.962 290 168.633 290 149.995ZM90 149.995C90 131.357 90 122.038 93.0448 114.688C97.1046 104.886 104.886 97.1046 114.688 93.0448C122.038 90 131.357 90 149.995 90C168.633 90 177.962 90 185.312 93.0448C195.114 97.1046 202.893 104.886 206.953 114.688C209.998 122.038 209.998 131.362 209.998 150C209.998 168.638 209.998 177.957 206.953 185.307C202.893 195.108 195.114 202.893 185.312 206.953C177.962 209.998 168.632 209.998 149.995 209.998C131.357 209.998 122.038 209.998 114.688 206.953C104.886 202.893 97.1046 195.114 93.0448 185.312C90 177.962 90 168.633 90 149.995Z" stroke="white" stroke-width="40" stroke-linecap="round" stroke-linejoin="round"/>
</g>
<defs>
<clipPath id="clip0_44_2">
<rect width="500" height="500" fill="white"/>
</clipPath>
</defs>
</svg>
